# Blender v3.0.0 OBJ File: ''
# www.blender.org
mtllib Robot.mtl
o Robot
v -0.074130 0.127079 0.074130
v -0.074130 0.105901 -0.095310
v -0.074130 0.105901 0.095310
v -0.074130 0.127079 -0.074130
v -0.074130 0.148260 0.052950
v -0.074130 0.148260 0.031770
v -0.074130 0.148260 -0.031770
v -0.074130 0.148260 -0.052950
v -0.074130 0.190620 0.052950
v -0.074130 0.190620 0.031770
v -0.074130 0.190620 -0.031770
v -0.074130 0.190620 -0.052950
v -0.074130 0.211800 0.074130
v -0.074130 0.211800 -0.074130
v -0.074130 0.232980 0.095310
v -0.074130 0.232980 -0.095310
v -0.052950 0.042360 0.031770
v -0.052950 0.021180 -0.052950
v -0.052950 0.021180 0.052950
v -0.052950 0.042360 0.010589
v -0.052950 0.042360 -0.010589
v -0.052950 0.042360 -0.031770
v -0.052950 0.063540 0.031770
v -0.052950 0.063540 0.010589
v -0.052950 0.063540 -0.010589
v -0.052950 0.063540 -0.031770
v -0.052950 0.084721 0.031770
v -0.052950 0.084721 0.010589
v -0.052950 0.084721 -0.010589
v -0.052950 0.084721 -0.031770
v -0.052950 0.105901 0.052950
v -0.052950 0.105901 -0.052950
v -0.010589 0.021180 0.031770
v -0.010589 -0.000000 0.010589
v -0.010589 -0.000000 0.031770
v -0.010589 0.021180 0.010589
v -0.010589 0.021180 -0.010589
v -0.010589 0.000000 -0.031770
v -0.010589 0.000000 -0.010589
v -0.010589 0.021180 -0.031770
v -0.010589 0.084721 0.074130
v -0.010589 0.042360 0.052950
v -0.010589 0.042360 0.074130
v -0.010589 0.084721 0.052950
v -0.010589 0.084721 -0.052950
v -0.010589 0.042360 -0.074130
v -0.010589 0.042360 -0.052950
v -0.010589 0.084721 -0.074130
v -0.010589 0.275341 0.010589
v -0.010589 0.232980 -0.010589
v -0.010589 0.232980 0.010589
v -0.010589 0.275341 -0.010589
v -0.010589 0.296521 0.010589
v -0.010589 0.296521 -0.010589
v 0.010589 -0.000000 0.031770
v 0.010589 -0.000000 0.010589
v 0.010589 0.021180 0.031770
v 0.010589 0.021180 0.010589
v 0.010589 0.000000 -0.010589
v 0.010589 0.000000 -0.031770
v 0.010589 0.021180 -0.010589
v 0.010589 0.021180 -0.031770
v 0.010589 0.042360 0.074130
v 0.010589 0.042360 0.052950
v 0.010589 0.084721 0.074130
v 0.010589 0.084721 0.052950
v 0.010589 0.042360 -0.052950
v 0.010589 0.042360 -0.074130
v 0.010589 0.084721 -0.052950
v 0.010589 0.084721 -0.074130
v 0.010589 0.232980 0.010589
v 0.010589 0.232980 -0.010589
v 0.010589 0.275341 0.010589
v 0.010589 0.275341 -0.010589
v 0.010589 0.296521 0.010589
v 0.010589 0.296521 -0.010589
v 0.052950 0.021180 0.052950
v 0.052950 0.021180 -0.052950
v 0.052950 0.042360 0.031770
v 0.052950 0.042360 0.010589
v 0.052950 0.042360 -0.010589
v 0.052950 0.042360 -0.031770
v 0.052950 0.084721 0.031770
v 0.052950 0.084721 0.010589
v 0.052950 0.084721 -0.010589
v 0.052950 0.084721 -0.031770
v 0.052950 0.105901 0.052950
v 0.052950 0.105901 -0.052950
v 0.074130 0.105901 0.095310
v 0.074130 0.105901 -0.095310
v 0.074130 0.232980 0.095310
v 0.074130 0.232980 -0.095310
v 0.074130 0.105901 0.095310
v -0.074130 0.232980 0.095310
v -0.074130 0.105901 0.095310
v 0.074130 0.232980 0.095310
v 0.010589 0.042360 0.074130
v -0.010589 0.084721 0.074130
v -0.010589 0.042360 0.074130
v 0.010589 0.084721 0.074130
v -0.010589 0.042360 0.052950
v -0.052950 0.105901 0.052950
v -0.052950 0.021180 0.052950
v -0.010589 0.084721 0.052950
v 0.010589 0.042360 0.052950
v 0.010589 0.084721 0.052950
v 0.052950 0.021180 0.052950
v 0.052950 0.105901 0.052950
v 0.010589 -0.000000 0.031770
v -0.010589 0.021180 0.031770
v -0.010589 -0.000000 0.031770
v 0.010589 0.021180 0.031770
v 0.010589 0.232980 0.010589
v -0.010589 0.275341 0.010589
v -0.010589 0.232980 0.010589
v 0.010589 0.275341 0.010589
v -0.010589 0.296521 0.010589
v 0.010589 0.296521 0.010589
v 0.010589 0.000000 -0.010589
v -0.010589 0.021180 -0.010589
v -0.010589 0.000000 -0.010589
v 0.010589 0.021180 -0.010589
v -0.010589 -0.000000 0.010589
v -0.010589 0.021180 0.010589
v 0.010589 -0.000000 0.010589
v 0.010589 0.021180 0.010589
v -0.010589 0.232980 -0.010589
v -0.010589 0.275341 -0.010589
v 0.010589 0.232980 -0.010589
v -0.010589 0.296521 -0.010589
v 0.010589 0.275341 -0.010589
v 0.010589 0.296521 -0.010589
v -0.010589 0.000000 -0.031770
v -0.010589 0.021180 -0.031770
v 0.010589 0.000000 -0.031770
v 0.010589 0.021180 -0.031770
v -0.052950 0.021180 -0.052950
v -0.052950 0.105901 -0.052950
v -0.010589 0.042360 -0.052950
v -0.010589 0.084721 -0.052950
v 0.010589 0.042360 -0.052950
v 0.010589 0.084721 -0.052950
v 0.052950 0.021180 -0.052950
v 0.052950 0.105901 -0.052950
v -0.010589 0.042360 -0.074130
v -0.010589 0.084721 -0.074130
v 0.010589 0.042360 -0.074130
v 0.010589 0.084721 -0.074130
v -0.074130 0.105901 -0.095310
v -0.074130 0.232980 -0.095310
v 0.074130 0.105901 -0.095310
v 0.074130 0.232980 -0.095310
v -0.010589 -0.000000 0.010589
v 0.010589 -0.000000 0.031770
v -0.010589 -0.000000 0.031770
v 0.010589 -0.000000 0.010589
v -0.010589 0.000000 -0.031770
v 0.010589 0.000000 -0.010589
v -0.010589 0.000000 -0.010589
v 0.010589 0.000000 -0.031770
v -0.010589 0.021180 0.031770
v 0.052950 0.021180 0.052950
v -0.052950 0.021180 0.052950
v 0.010589 0.021180 0.031770
v -0.010589 0.021180 0.010589
v 0.010589 0.021180 0.010589
v -0.010589 0.021180 -0.010589
v 0.010589 0.021180 -0.010589
v -0.010589 0.021180 -0.031770
v 0.010589 0.021180 -0.031770
v -0.052950 0.021180 -0.052950
v 0.052950 0.021180 -0.052950
v -0.010589 0.042360 0.052950
v 0.010589 0.042360 0.074130
v -0.010589 0.042360 0.074130
v 0.010589 0.042360 0.052950
v -0.010589 0.042360 -0.074130
v 0.010589 0.042360 -0.052950
v -0.010589 0.042360 -0.052950
v 0.010589 0.042360 -0.074130
v -0.052950 0.105901 0.052950
v 0.074130 0.105901 0.095310
v -0.074130 0.105901 0.095310
v 0.052950 0.105901 0.052950
v -0.052950 0.105901 -0.052950
v 0.052950 0.105901 -0.052950
v -0.074130 0.105901 -0.095310
v 0.074130 0.105901 -0.095310
v -0.010589 0.084721 0.074130
v 0.010589 0.084721 0.074130
v -0.010589 0.084721 0.052950
v 0.010589 0.084721 0.052950
v -0.010589 0.084721 -0.052950
v 0.010589 0.084721 -0.052950
v -0.010589 0.084721 -0.074130
v 0.010589 0.084721 -0.074130
v -0.074130 0.232980 0.095310
v 0.074130 0.232980 0.095310
v -0.010589 0.232980 0.010589
v 0.010589 0.232980 0.010589
v -0.010589 0.232980 -0.010589
v 0.010589 0.232980 -0.010589
v -0.074130 0.232980 -0.095310
v 0.074130 0.232980 -0.095310
v -0.010589 0.296521 0.010589
v 0.010589 0.296521 0.010589
v -0.010589 0.296521 -0.010589
v 0.010589 0.296521 -0.010589
vt 0.970703 0.500000
vt 0.970703 0.500000
vt 0.970703 0.500000
vt 0.970703 0.500000
vt 0.974609 0.500000
vt 0.974609 0.500000
vt 0.974609 0.500000
vt 0.974609 0.500000
vt 0.974609 0.500000
vt 0.974609 0.500000
vt 0.974609 0.500000
vt 0.978516 0.500000
vt 0.978516 0.500000
vt 0.978516 0.500000
vt 0.974609 0.500000
vt 0.978516 0.500000
vt 0.978516 0.500000
vt 0.978516 0.500000
vt 0.978516 0.500000
vt 0.974609 0.500000
vt 0.974609 0.500000
vt 0.978516 0.500000
vt 0.970703 0.500000
vt 0.974609 0.500000
vt 0.974609 0.500000
vt 0.970703 0.500000
vt 0.970703 0.500000
vt 0.970703 0.500000
vt 0.970703 0.500000
vt 0.970703 0.500000
vt 0.970703 0.500000
vt 0.970703 0.500000
vt 0.970703 0.500000
vt 0.970703 0.500000
vt 0.970703 0.500000
vt 0.974609 0.500000
vt 0.974609 0.500000
vt 0.974609 0.500000
vt 0.970703 0.500000
vt 0.974609 0.500000
vt 0.982422 0.500000
vt 0.982422 0.500000
vt 0.982422 0.500000
vt 0.970703 0.500000
vt 0.970703 0.500000
vt 0.982422 0.500000
vt 0.982422 0.500000
vt 0.982422 0.500000
vt 0.982422 0.500000
vt 0.970703 0.500000
vt 0.970703 0.500000
vt 0.982422 0.500000
vt 0.974609 0.500000
vt 0.974609 0.500000
vt 0.974609 0.500000
vt 0.970703 0.500000
vt 0.970703 0.500000
vt 0.974609 0.500000
vt 0.970703 0.500000
vt 0.970703 0.500000
vt 0.974609 0.500000
vt 0.974609 0.500000
vt 0.974609 0.500000
vt 0.974609 0.500000
vt 0.974609 0.500000
vt 0.974609 0.500000
vt 0.974609 0.500000
vt 0.974609 0.500000
vt 0.974609 0.500000
vt 0.974609 0.500000
vt 0.974609 0.500000
vt 0.974609 0.500000
vt 0.974609 0.500000
vt 0.974609 0.500000
vt 0.974609 0.500000
vt 0.974609 0.500000
vt 0.974609 0.500000
vt 0.974609 0.500000
vt 0.974609 0.500000
vt 0.974609 0.500000
vt 0.970703 0.500000
vt 0.970703 0.500000
vt 0.970703 0.500000
vt 0.970703 0.500000
vt 0.974609 0.500000
vt 0.974609 0.500000
vt 0.974609 0.500000
vt 0.974609 0.500000
vt 0.974609 0.500000
vt 0.974609 0.500000
vt 0.974609 0.500000
vt 0.974609 0.500000
vt 0.974609 0.500000
vt 0.974609 0.500000
vt 0.974609 0.500000
vt 0.974609 0.500000
vt 0.974609 0.500000
vt 0.974609 0.500000
vt 0.974609 0.500000
vt 0.974609 0.500000
vt 0.974609 0.500000
vt 0.974609 0.500000
vt 0.974609 0.500000
vt 0.974609 0.500000
vt 0.970703 0.500000
vt 0.970703 0.500000
vt 0.970703 0.500000
vt 0.970703 0.500000
vt 0.970703 0.500000
vt 0.970703 0.500000
vt 0.970703 0.500000
vt 0.970703 0.500000
vt 0.970703 0.500000
vt 0.970703 0.500000
vt 0.970703 0.500000
vt 0.974609 0.500000
vt 0.974609 0.500000
vt 0.974609 0.500000
vt 0.970703 0.500000
vt 0.974609 0.500000
vt 0.974609 0.500000
vt 0.974609 0.500000
vt 0.974609 0.500000
vt 0.970703 0.500000
vt 0.970703 0.500000
vt 0.974609 0.500000
vt 0.970703 0.500000
vt 0.970703 0.500000
vt 0.970703 0.500000
vt 0.970703 0.500000
vt 0.970703 0.500000
vt 0.970703 0.500000
vt 0.970703 0.500000
vt 0.970703 0.500000
vt 0.970703 0.500000
vt 0.970703 0.500000
vt 0.974609 0.500000
vt 0.974609 0.500000
vt 0.974609 0.500000
vt 0.974609 0.500000
vt 0.970703 0.500000
vt 0.970703 0.500000
vt 0.970703 0.500000
vt 0.970703 0.500000
vt 0.970703 0.500000
vt 0.970703 0.500000
vt 0.970703 0.500000
vt 0.970703 0.500000
vt 0.974609 0.500000
vt 0.974609 0.500000
vt 0.974609 0.500000
vt 0.974609 0.500000
vt 0.974609 0.500000
vt 0.974609 0.500000
vt 0.974609 0.500000
vt 0.970703 0.500000
vt 0.970703 0.500000
vt 0.970703 0.500000
vt 0.974609 0.500000
vt 0.970703 0.500000
vt 0.974609 0.500000
vt 0.974609 0.500000
vt 0.974609 0.500000
vt 0.974609 0.500000
vt 0.974609 0.500000
vt 0.974609 0.500000
vt 0.974609 0.500000
vt 0.974609 0.500000
vt 0.974609 0.500000
vt 0.974609 0.500000
vt 0.974609 0.500000
vt 0.970703 0.500000
vt 0.970703 0.500000
vt 0.970703 0.500000
vt 0.974609 0.500000
vt 0.970703 0.500000
vt 0.974609 0.500000
vt 0.974609 0.500000
vt 0.974609 0.500000
vt 0.974609 0.500000
vt 0.970703 0.500000
vt 0.970703 0.500000
vt 0.970703 0.500000
vt 0.970703 0.500000
vt 0.970703 0.500000
vt 0.970703 0.500000
vt 0.970703 0.500000
vt 0.970703 0.500000
vt 0.974609 0.500000
vt 0.974609 0.500000
vt 0.974609 0.500000
vt 0.974609 0.500000
vt 0.970703 0.500000
vt 0.970703 0.500000
vt 0.970703 0.500000
vt 0.970703 0.500000
vt 0.974609 0.500000
vt 0.974609 0.500000
vt 0.974609 0.500000
vt 0.974609 0.500000
vt 0.974609 0.500000
vt 0.974609 0.500000
vt 0.974609 0.500000
vt 0.974609 0.500000
vt 0.970703 0.500000
vt 0.970703 0.500000
vt 0.970703 0.500000
vt 0.970703 0.500000
vt 0.970703 0.500000
vt 0.970703 0.500000
vt 0.970703 0.500000
vt 0.970703 0.500000
vt 0.970703 0.500000
vt 0.970703 0.500000
vt 0.970703 0.500000
vt 0.970703 0.500000
vt 0.974609 0.500000
vt 0.974609 0.500000
vt 0.974609 0.500000
vt 0.974609 0.500000
vt 0.974609 0.500000
vt 0.974609 0.500000
vt 0.974609 0.500000
vt 0.974609 0.500000
vt 0.970703 0.500000
vt 0.970703 0.500000
vt 0.970703 0.500000
vt 0.970703 0.500000
vt 0.970703 0.500000
vt 0.970703 0.500000
vt 0.970703 0.500000
vt 0.970703 0.500000
vt 0.974609 0.500000
vt 0.974609 0.500000
vt 0.974609 0.500000
vt 0.974609 0.500000
vt 0.974609 0.500000
vt 0.974609 0.500000
vt 0.974609 0.500000
vt 0.974609 0.500000
vt 0.970703 0.500000
vt 0.970703 0.500000
vt 0.970703 0.500000
vt 0.970703 0.500000
vt 0.970703 0.500000
vt 0.970703 0.500000
vt 0.970703 0.500000
vt 0.970703 0.500000
vt 0.970703 0.500000
vt 0.970703 0.500000
vt 0.970703 0.500000
vt 0.970703 0.500000
vn -1.0000 0.0000 0.0000
vn 1.0000 0.0000 0.0000
vn 0.0000 0.0000 1.0000
vn 0.0000 0.0000 -1.0000
vn 0.0000 -1.0000 -0.0000
vn 0.0000 1.0000 0.0000
usemtl palette
s 1
f 1/1/1 2/2/1 3/3/1
f 4/4/1 2/2/1 1/1/1
f 5/5/1 4/6/1 1/7/1
f 6/8/1 4/6/1 5/5/1
f 7/9/1 4/6/1 6/8/1
f 8/10/1 4/6/1 7/9/1
f 9/11/1 5/5/1 1/7/1
f 9/12/1 6/13/1 5/14/1
f 10/15/1 7/9/1 6/8/1
f 10/16/1 6/13/1 9/12/1
f 11/17/1 8/18/1 7/19/1
f 11/20/1 7/9/1 10/15/1
f 12/21/1 4/6/1 8/10/1
f 12/22/1 8/18/1 11/17/1
f 13/23/1 1/1/1 3/3/1
f 13/24/1 11/20/1 10/15/1
f 13/24/1 12/21/1 11/20/1
f 13/24/1 9/11/1 1/7/1
f 13/24/1 10/15/1 9/11/1
f 14/25/1 4/6/1 12/21/1
f 14/25/1 12/21/1 13/24/1
f 14/26/1 2/2/1 4/4/1
f 15/27/1 13/23/1 3/3/1
f 15/27/1 14/26/1 13/23/1
f 16/28/1 2/2/1 14/26/1
f 16/28/1 14/26/1 15/27/1
f 17/29/1 18/30/1 19/31/1
f 20/32/1 18/30/1 17/29/1
f 21/33/1 18/30/1 20/32/1
f 22/34/1 18/30/1 21/33/1
f 23/35/1 17/29/1 19/31/1
f 23/36/1 20/37/1 17/38/1
f 24/39/1 21/33/1 20/32/1
f 24/40/1 20/37/1 23/36/1
f 25/41/1 22/42/1 21/43/1
f 25/44/1 21/33/1 24/39/1
f 26/45/1 18/30/1 22/34/1
f 26/46/1 22/42/1 25/41/1
f 27/47/1 24/48/1 23/49/1
f 27/50/1 23/35/1 19/31/1
f 28/51/1 25/44/1 24/39/1
f 28/52/1 24/48/1 27/47/1
f 29/53/1 26/54/1 25/55/1
f 29/56/1 25/44/1 28/51/1
f 30/57/1 18/30/1 26/45/1
f 30/58/1 26/54/1 29/53/1
f 31/59/1 27/50/1 19/31/1
f 31/59/1 29/56/1 28/51/1
f 31/59/1 30/57/1 29/56/1
f 31/59/1 28/51/1 27/50/1
f 32/60/1 18/30/1 30/57/1
f 32/60/1 30/57/1 31/59/1
f 33/61/1 34/62/1 35/63/1
f 36/64/1 34/62/1 33/61/1
f 37/65/1 38/66/1 39/67/1
f 40/68/1 38/66/1 37/65/1
f 41/69/1 42/70/1 43/71/1
f 44/72/1 42/70/1 41/69/1
f 45/73/1 46/74/1 47/75/1
f 48/76/1 46/74/1 45/73/1
f 49/77/1 50/78/1 51/79/1
f 52/80/1 50/78/1 49/77/1
f 53/81/1 52/82/1 49/83/1
f 54/84/1 52/82/1 53/81/1
f 55/85/2 56/86/2 57/87/2
f 57/87/2 56/86/2 58/88/2
f 59/89/2 60/90/2 61/91/2
f 61/91/2 60/90/2 62/92/2
f 63/93/2 64/94/2 65/95/2
f 65/95/2 64/94/2 66/96/2
f 67/97/2 68/98/2 69/99/2
f 69/99/2 68/98/2 70/100/2
f 71/101/2 72/102/2 73/103/2
f 73/103/2 72/102/2 74/104/2
f 73/105/2 74/106/2 75/107/2
f 75/107/2 74/106/2 76/108/2
f 77/109/2 78/110/2 79/111/2
f 79/111/2 78/110/2 80/112/2
f 80/112/2 78/110/2 81/113/2
f 81/113/2 78/110/2 82/114/2
f 77/109/2 79/111/2 83/115/2
f 79/116/2 80/117/2 83/118/2
f 80/112/2 81/113/2 84/119/2
f 83/118/2 80/117/2 84/120/2
f 81/121/2 82/122/2 85/123/2
f 84/119/2 81/113/2 85/124/2
f 82/114/2 78/110/2 86/125/2
f 85/123/2 82/122/2 86/126/2
f 84/119/2 85/124/2 87/127/2
f 83/115/2 84/119/2 87/127/2
f 85/124/2 86/125/2 87/127/2
f 77/109/2 83/115/2 87/127/2
f 86/125/2 78/110/2 88/128/2
f 87/127/2 86/125/2 88/128/2
f 89/129/2 90/130/2 91/131/2
f 91/131/2 90/130/2 92/132/2
f 93/133/3 94/134/3 95/135/3
f 96/136/3 94/134/3 93/133/3
f 97/137/3 98/138/3 99/139/3
f 100/140/3 98/138/3 97/137/3
f 101/141/3 102/142/3 103/143/3
f 104/144/3 102/142/3 101/141/3
f 105/145/3 101/141/3 103/143/3
f 106/146/3 102/142/3 104/144/3
f 107/147/3 105/145/3 103/143/3
f 107/147/3 106/146/3 105/145/3
f 108/148/3 102/142/3 106/146/3
f 108/148/3 106/146/3 107/147/3
f 109/149/3 110/150/3 111/151/3
f 112/152/3 110/150/3 109/149/3
f 113/153/3 114/154/3 115/155/3
f 116/156/3 117/157/3 114/158/3
f 116/159/3 114/154/3 113/153/3
f 118/160/3 117/157/3 116/156/3
f 119/161/3 120/162/3 121/163/3
f 122/164/3 120/162/3 119/161/3
f 123/165/4 124/166/4 125/167/4
f 125/167/4 124/166/4 126/168/4
f 127/169/4 128/170/4 129/171/4
f 128/172/4 130/173/4 131/174/4
f 129/171/4 128/170/4 131/175/4
f 131/174/4 130/173/4 132/176/4
f 133/177/4 134/178/4 135/179/4
f 135/179/4 134/178/4 136/180/4
f 137/181/4 138/182/4 139/183/4
f 139/183/4 138/182/4 140/184/4
f 137/181/4 139/183/4 141/185/4
f 140/184/4 138/182/4 142/186/4
f 137/181/4 141/185/4 143/187/4
f 141/185/4 142/186/4 143/187/4
f 142/186/4 138/182/4 144/188/4
f 143/187/4 142/186/4 144/188/4
f 145/189/4 146/190/4 147/191/4
f 147/191/4 146/190/4 148/192/4
f 149/193/4 150/194/4 151/195/4
f 151/195/4 150/194/4 152/196/4
f 153/197/5 154/198/5 155/199/5
f 156/200/5 154/198/5 153/197/5
f 157/201/5 158/202/5 159/203/5
f 160/204/5 158/202/5 157/201/5
f 161/205/5 162/206/5 163/207/5
f 164/208/5 162/206/5 161/205/5
f 165/209/5 161/205/5 163/207/5
f 166/210/5 162/206/5 164/208/5
f 167/211/5 165/209/5 163/207/5
f 167/211/5 166/210/5 165/209/5
f 168/212/5 162/206/5 166/210/5
f 168/212/5 166/210/5 167/211/5
f 169/213/5 167/211/5 163/207/5
f 170/214/5 162/206/5 168/212/5
f 171/215/5 169/213/5 163/207/5
f 171/215/5 170/214/5 169/213/5
f 172/216/5 162/206/5 170/214/5
f 172/216/5 170/214/5 171/215/5
f 173/217/5 174/218/5 175/219/5
f 176/220/5 174/218/5 173/217/5
f 177/221/5 178/222/5 179/223/5
f 180/224/5 178/222/5 177/221/5
f 181/225/5 182/226/5 183/227/5
f 184/228/5 182/226/5 181/225/5
f 185/229/5 181/225/5 183/227/5
f 186/230/5 182/226/5 184/228/5
f 187/231/5 185/229/5 183/227/5
f 187/231/5 186/230/5 185/229/5
f 188/232/5 182/226/5 186/230/5
f 188/232/5 186/230/5 187/231/5
f 189/233/6 190/234/6 191/235/6
f 191/235/6 190/234/6 192/236/6
f 193/237/6 194/238/6 195/239/6
f 195/239/6 194/238/6 196/240/6
f 197/241/6 198/242/6 199/243/6
f 199/243/6 198/242/6 200/244/6
f 197/241/6 199/243/6 201/245/6
f 200/244/6 198/242/6 202/246/6
f 197/241/6 201/245/6 203/247/6
f 201/245/6 202/246/6 203/247/6
f 202/246/6 198/242/6 204/248/6
f 203/247/6 202/246/6 204/248/6
f 205/249/6 206/250/6 207/251/6
f 207/251/6 206/250/6 208/252/6
